<svg width="200" height="200" viewBox="0 0 200 200" fill="none" xmlns="http://www.w3.org/2000/svg">
<path fill-rule="evenodd" clip-rule="evenodd" d="M132.472 24.4797C139.484 30.4683 144.703 38.2793 147.553 47.0491L123.776 54.7746C122.352 50.3897 119.742 46.4842 116.236 43.4898C112.73 40.4955 108.465 38.529 103.911 37.8078C99.3571 37.0865 94.6925 37.6386 90.4329 39.403C86.1733 41.1674 82.4846 44.0753 79.7746 47.8054C77.0646 51.5354 75.4388 55.9422 75.0771 60.5385C74.7153 65.1349 75.6317 69.7417 77.7249 73.8498C79.818 77.9578 83.0064 81.407 86.9376 83.816C90.8687 86.225 95.3895 87.5 100 87.5C109.221 87.5 118.263 90.05 126.125 94.868C133.987 99.686 140.364 106.584 144.55 114.8C148.737 123.017 150.569 132.23 149.846 141.423C149.122 150.616 145.871 159.429 140.451 166.889C135.031 174.349 127.653 180.165 119.134 183.694C110.615 187.223 101.286 188.327 92.1783 186.884C83.0707 185.442 74.5394 181.509 67.5276 175.52C60.5158 169.532 55.2967 161.721 52.4472 152.951L76.2236 145.225C77.6483 149.61 80.2579 153.516 83.7638 156.51C87.2697 159.504 91.5354 161.471 96.0892 162.192C100.643 162.913 105.308 162.361 109.567 160.597C113.827 158.833 117.515 155.925 120.225 152.195C122.935 148.465 124.561 144.058 124.923 139.461C125.285 134.865 124.368 130.258 122.275 126.15C120.182 122.042 116.994 118.593 113.062 116.184C109.131 113.775 104.611 112.5 100 112.5C90.7789 112.5 81.7374 109.95 73.8751 105.132C66.0128 100.314 59.636 93.4156 55.4497 85.1995C51.2634 76.9834 49.4307 67.7697 50.1542 58.577C50.8776 49.3843 54.1291 40.5708 59.5492 33.1107C64.9692 25.6507 72.3467 19.8348 80.8659 16.306C89.3851 12.7773 98.7142 11.6731 107.822 13.1156C116.929 14.5581 125.461 18.4911 132.472 24.4797Z" fill="#AE2127" fill-opacity="0.8"/>
</svg>
